<?xml version="1.0" encoding="UTF-8" ?>
<!DOCTYPE svg PUBLIC "-//W3C//DTD SVG 1.1//EN" "http://www.w3.org/Graphics/SVG/1.1/DTD/svg11.dtd">
<svg width="608pt" height="222pt" viewBox="0 0 608 222" version="1.1" xmlns="http://www.w3.org/2000/svg">
<path fill="#ffffff" d=" M 0.00 0.00 L 221.54 0.00 C 220.69 0.70 219.87 1.43 219.08 2.19 C 149.80 71.54 80.45 140.82 11.15 210.15 C 7.31 213.77 3.40 217.41 0.68 222.00 L 0.00 222.00 L 0.00 0.00 Z" />
<path fill="#47babd" d=" M 221.54 0.00 L 522.81 0.00 C 511.62 11.74 499.93 22.99 488.53 34.53 C 429.03 94.03 369.53 153.53 310.03 213.03 C 306.98 216.06 304.07 219.25 300.76 222.00 L 0.68 222.00 C 3.40 217.41 7.31 213.77 11.15 210.15 C 80.45 140.82 149.80 71.54 219.08 2.19 C 219.87 1.43 220.69 0.70 221.54 0.00 Z" />
<path fill="#ffffff" d=" M 522.81 0.00 L 608.00 0.00 L 608.00 222.00 L 300.76 222.00 C 304.07 219.25 306.98 216.06 310.03 213.03 C 369.53 153.53 429.03 94.03 488.53 34.53 C 499.93 22.99 511.62 11.74 522.81 0.00 Z" />
</svg>
