<?xml version="1.0" encoding="UTF-8" ?>
<!DOCTYPE svg PUBLIC "-//W3C//DTD SVG 1.1//EN" "http://www.w3.org/Graphics/SVG/1.1/DTD/svg11.dtd">
<svg width="2571pt" height="389pt" viewBox="0 0 2571 389" version="1.1" xmlns="http://www.w3.org/2000/svg">
<path fill="#fffefe" d=" M 0.00 0.00 L 2571.00 0.00 L 2571.00 389.00 L 0.00 389.00 L 0.00 0.00 Z" />
<path fill="#e66f6f" d=" M 2054.46 27.60 C 2073.10 25.48 2091.83 39.58 2095.12 58.02 C 2096.03 64.72 2095.83 71.76 2093.10 78.05 C 2089.34 88.49 2080.23 96.50 2069.83 99.99 C 2063.94 102.12 2057.55 101.86 2051.43 101.38 C 2039.59 99.11 2029.26 90.78 2024.01 80.00 C 2020.82 73.26 2020.68 65.62 2021.42 58.35 C 2022.53 50.59 2026.88 43.76 2032.06 38.06 C 2038.19 32.34 2046.10 28.53 2054.46 27.60 Z" />
<path fill="#e66f6f" d=" M 309.31 39.46 C 318.73 36.82 327.74 32.80 337.35 30.85 C 337.74 108.88 337.33 186.91 337.56 264.94 C 338.24 271.74 338.88 279.79 344.71 284.34 C 349.85 287.93 356.42 288.14 362.41 289.14 C 362.45 290.55 362.49 291.97 362.53 293.39 C 325.11 293.53 287.69 293.51 250.28 293.40 C 250.31 291.94 250.36 290.49 250.41 289.04 C 257.23 287.89 265.39 287.98 270.24 282.23 C 274.77 276.57 274.71 268.87 275.30 262.00 C 275.32 212.33 275.30 162.67 275.31 113.00 C 275.18 102.11 275.98 91.07 273.65 80.34 C 271.83 73.07 267.61 65.77 260.64 62.41 C 256.03 60.21 250.84 59.97 245.92 58.92 C 245.71 57.61 245.49 56.31 245.26 55.01 C 266.81 50.72 288.13 45.32 309.31 39.46 Z" />
<path fill="#e66f6f" d=" M 1235.34 41.31 C 1247.05 38.11 1258.36 33.47 1270.21 30.80 C 1270.58 109.51 1270.20 188.23 1270.40 266.94 C 1270.85 272.59 1271.71 278.88 1276.01 283.00 C 1280.80 288.45 1288.76 287.78 1295.28 289.16 C 1295.32 290.56 1295.36 291.96 1295.42 293.37 C 1257.73 293.55 1220.05 293.51 1182.36 293.39 C 1182.40 291.95 1182.45 290.52 1182.51 289.10 C 1189.54 287.81 1198.14 288.19 1203.04 282.05 C 1208.46 274.52 1207.13 264.76 1208.14 256.04 C 1208.20 204.01 1208.17 151.99 1208.15 99.96 C 1207.37 91.76 1207.96 83.17 1204.66 75.43 C 1202.65 70.51 1199.03 66.39 1194.81 63.22 C 1189.92 60.06 1183.87 60.16 1178.39 58.74 C 1178.16 57.48 1177.94 56.22 1177.74 54.96 C 1197.15 51.37 1216.22 46.19 1235.34 41.31 Z" />
<path fill="#e66f6f" d=" M 1786.69 31.57 C 1805.48 29.55 1825.54 32.66 1841.18 43.82 C 1847.11 48.56 1852.63 54.22 1855.54 61.36 C 1859.99 71.62 1859.14 84.83 1851.07 93.10 C 1839.80 104.73 1818.94 103.74 1808.37 91.64 C 1802.48 85.61 1801.31 76.85 1800.61 68.84 C 1800.33 61.56 1799.97 54.25 1798.89 47.04 C 1797.96 40.33 1791.11 34.00 1784.11 35.90 C 1778.40 37.11 1774.18 41.88 1772.05 47.10 C 1768.12 56.52 1767.64 66.92 1767.82 77.00 C 1767.91 90.24 1767.67 103.48 1767.93 116.72 C 1780.68 116.89 1793.44 116.52 1806.19 116.91 C 1803.64 122.94 1800.08 128.47 1796.90 134.18 C 1787.24 134.36 1777.58 134.15 1767.93 134.27 C 1767.69 175.19 1767.87 216.12 1767.85 257.05 C 1768.57 265.38 1768.22 275.05 1774.55 281.44 C 1781.49 287.48 1791.24 286.01 1799.66 287.52 C 1799.65 288.95 1799.69 290.38 1799.79 291.81 C 1773.53 292.14 1747.26 291.86 1721.00 291.95 C 1706.75 291.85 1692.50 292.15 1678.26 291.81 C 1678.31 290.36 1678.36 288.91 1678.40 287.46 C 1685.26 286.04 1693.11 286.59 1698.78 281.79 C 1704.67 276.74 1705.48 268.31 1705.66 261.05 C 1705.59 218.80 1705.65 176.55 1705.63 134.30 C 1698.95 134.14 1692.28 134.40 1685.62 134.08 C 1690.23 126.71 1696.28 120.41 1701.38 113.39 C 1714.33 97.33 1726.73 80.83 1740.03 65.06 C 1748.02 55.74 1756.29 46.44 1766.31 39.24 C 1772.21 34.79 1779.41 32.46 1786.69 31.57 Z" />
<path fill="#e66f6f" d=" M 1941.56 31.53 C 1959.36 29.77 1978.28 32.48 1993.42 42.54 C 2002.21 48.60 2009.81 57.55 2011.68 68.33 C 2012.90 76.29 2012.03 85.25 2006.53 91.53 C 1995.74 105.01 1972.64 104.30 1961.96 91.02 C 1956.28 84.73 1955.35 75.90 1954.55 67.82 C 1954.44 61.39 1954.06 54.95 1953.29 48.56 C 1952.66 43.96 1950.54 39.07 1946.15 36.95 C 1942.51 34.72 1937.92 35.54 1934.32 37.35 C 1929.05 40.27 1926.32 46.08 1924.47 51.54 C 1921.98 60.45 1921.65 69.80 1921.78 79.00 C 1921.87 91.57 1921.63 104.15 1921.90 116.72 C 1934.69 116.89 1947.49 116.52 1960.28 116.91 C 1957.65 122.92 1954.32 128.59 1950.96 134.21 C 1941.27 134.33 1931.58 134.17 1921.90 134.27 C 1921.64 162.51 1921.86 190.76 1921.79 219.00 C 1922.00 235.97 1921.02 253.02 1923.17 269.89 C 1923.97 276.07 1927.72 281.94 1933.53 284.48 C 1940.18 287.14 1947.48 286.25 1954.39 287.66 C 1954.37 289.08 1954.37 290.50 1954.39 291.92 C 1913.67 291.90 1872.94 292.11 1832.21 291.81 C 1832.27 290.35 1832.32 288.90 1832.37 287.45 C 1839.20 285.98 1847.18 286.68 1852.79 281.81 C 1858.96 276.45 1859.81 267.68 1859.65 260.02 C 1860.85 249.05 1860.25 238.01 1860.38 227.00 C 1860.30 196.09 1860.54 165.17 1860.27 134.26 C 1853.36 134.16 1846.45 134.42 1839.56 134.07 C 1844.21 127.03 1849.94 120.79 1854.99 114.04 C 1867.87 97.90 1880.40 81.48 1893.62 65.62 C 1902.24 55.60 1911.04 45.45 1922.07 38.00 C 1927.84 34.10 1934.70 32.24 1941.56 31.53 Z" />
<path fill="#e66f6f" d=" M 877.77 35.67 C 890.72 31.26 904.83 32.01 918.04 34.83 C 932.30 37.81 946.09 45.42 954.24 57.78 C 958.98 64.83 960.30 73.69 959.16 82.00 C 957.39 92.61 947.83 100.98 937.39 102.59 C 924.08 105.22 908.90 97.55 904.53 84.41 C 900.69 72.59 902.65 59.92 900.18 47.87 C 899.35 44.01 896.74 40.59 893.32 38.65 C 888.48 36.13 882.31 37.83 878.58 41.57 C 874.15 45.51 872.35 51.41 870.89 56.96 C 868.57 67.82 869.25 78.97 869.17 90.00 C 869.18 99.64 869.13 109.28 869.18 118.92 C 882.04 119.24 894.92 118.90 907.79 119.10 C 904.71 124.60 901.75 130.17 898.63 135.64 C 888.82 135.88 879.01 135.55 869.20 135.81 C 869.12 164.21 869.19 192.60 869.17 221.00 C 869.39 235.00 868.60 249.03 869.80 262.99 C 870.00 270.17 870.82 278.42 876.44 283.56 C 883.67 288.81 893.14 288.27 901.63 288.99 C 901.65 290.46 901.68 291.94 901.71 293.42 C 861.00 293.47 820.29 293.57 779.59 293.37 C 779.61 291.95 779.66 290.54 779.72 289.13 C 787.32 287.86 796.28 288.08 801.95 281.99 C 808.01 274.38 806.56 264.06 807.61 255.01 C 807.76 215.30 807.65 175.58 807.67 135.87 C 800.71 135.54 793.75 135.89 786.81 135.57 C 797.59 121.78 808.48 108.06 819.30 94.29 C 830.61 80.02 841.78 65.58 854.40 52.41 C 861.46 45.92 868.51 38.91 877.77 35.67 Z" />
<path fill="#e66f6f" d=" M 1523.43 55.65 C 1529.57 54.72 1535.78 54.39 1542.00 54.56 C 1580.91 53.28 1619.70 71.69 1644.06 101.91 C 1657.27 118.73 1666.42 138.94 1668.99 160.26 C 1672.33 183.68 1667.88 208.05 1657.02 229.03 C 1649.08 243.95 1638.37 257.57 1624.95 267.93 C 1609.07 280.49 1590.39 289.69 1570.49 293.71 C 1529.35 302.65 1484.04 290.67 1453.43 261.58 C 1437.48 246.25 1425.45 226.71 1419.71 205.30 C 1413.93 183.05 1414.70 159.08 1422.32 137.36 C 1433.66 104.38 1460.01 77.20 1492.31 64.21 C 1502.27 60.07 1512.75 57.20 1523.43 55.65 Z" />
<path fill="#fffefe" d=" M 1537.40 59.47 C 1547.76 58.20 1558.80 60.44 1567.25 66.75 C 1574.66 71.93 1579.59 79.96 1582.57 88.37 C 1590.25 109.71 1592.13 132.54 1593.42 155.00 C 1593.23 175.98 1594.22 197.03 1591.81 217.92 C 1590.03 234.05 1587.49 250.29 1581.45 265.43 C 1579.08 271.54 1575.18 276.96 1570.36 281.37 C 1564.22 287.41 1555.74 290.43 1547.33 291.50 C 1541.60 292.59 1535.78 291.29 1530.27 289.74 C 1517.74 286.09 1507.85 275.56 1503.68 263.35 C 1495.94 242.12 1493.79 219.40 1492.54 197.00 C 1492.54 183.00 1492.54 169.00 1492.54 155.00 C 1493.58 135.41 1495.42 115.70 1500.74 96.75 C 1502.93 88.96 1505.63 81.12 1510.62 74.63 C 1516.97 66.19 1526.91 60.63 1537.40 59.47 Z" />
<path fill="#e66f6f" d=" M 6.08 60.72 C 44.72 60.52 83.36 60.70 122.00 60.64 C 141.15 60.29 160.48 61.96 179.04 66.88 C 197.21 71.79 215.55 80.52 226.72 96.26 C 235.82 108.34 238.81 124.55 235.24 139.18 C 231.96 153.86 221.76 166.20 209.41 174.38 C 191.30 186.35 169.45 191.28 148.04 192.64 C 134.69 194.07 121.25 193.12 107.86 193.39 C 107.45 213.25 107.80 233.13 107.68 253.00 C 108.20 260.73 108.42 268.88 112.20 275.87 C 115.15 281.58 120.94 285.50 127.17 286.78 C 132.99 287.99 138.93 288.51 144.83 289.16 C 144.86 290.55 144.88 291.95 144.90 293.35 C 98.62 293.56 52.34 293.53 6.06 293.36 C 6.06 291.96 6.08 290.56 6.09 289.16 C 14.10 288.11 22.92 287.83 29.42 282.37 C 33.90 278.15 36.49 272.14 37.07 266.05 C 37.85 258.72 38.80 251.39 38.67 244.01 C 38.61 196.00 38.69 147.99 38.63 99.99 C 38.20 90.21 37.31 79.32 30.08 71.94 C 23.93 65.32 14.15 66.17 6.04 64.25 C 6.05 63.37 6.07 61.61 6.08 60.72 Z" />
<path fill="#fffefe" d=" M 107.80 65.27 C 119.66 64.98 132.26 65.24 142.94 71.08 C 149.05 74.82 154.25 80.39 156.86 87.13 C 160.60 96.22 162.15 106.07 162.47 115.85 C 163.21 122.60 163.28 129.42 162.50 136.18 C 162.05 149.00 160.47 162.41 153.48 173.50 C 148.72 181.19 140.19 185.84 131.45 187.42 C 123.69 189.24 115.69 188.81 107.80 188.75 C 107.61 147.59 107.61 106.43 107.80 65.27 Z" />
<path fill="#e66f6f" d=" M 2066.07 121.03 C 2075.21 118.39 2084.05 114.85 2093.12 111.97 C 2093.38 153.64 2093.16 195.32 2093.23 237.00 C 2093.55 248.48 2092.28 260.11 2094.54 271.47 C 2095.52 276.77 2098.71 281.92 2103.66 284.32 C 2108.42 286.48 2113.76 286.47 2118.83 287.38 C 2118.84 288.87 2118.90 290.35 2119.06 291.84 C 2092.04 292.11 2065.02 291.87 2038.00 291.95 C 2027.03 291.87 2016.06 292.13 2005.09 291.81 C 2005.19 290.36 2005.27 288.91 2005.34 287.46 C 2012.10 286.21 2019.94 286.39 2025.16 281.17 C 2030.24 275.43 2030.76 267.33 2031.03 260.04 C 2030.93 233.69 2030.89 207.34 2031.04 181.00 C 2030.92 170.43 2029.96 158.67 2022.51 150.48 C 2017.06 144.78 2008.91 143.60 2001.52 142.41 C 2001.31 141.27 2001.12 140.13 2000.95 139.00 C 2009.43 136.68 2018.09 135.02 2026.55 132.52 C 2039.79 128.95 2052.86 124.77 2066.07 121.03 Z" />
<path fill="#e66f6f" d=" M 2224.93 112.85 C 2234.20 111.58 2243.55 113.11 2252.70 114.59 C 2268.93 118.38 2285.11 126.08 2295.36 139.65 C 2303.76 150.44 2308.53 164.93 2305.27 178.51 C 2302.67 189.61 2293.41 199.21 2281.93 200.85 C 2276.28 201.35 2270.35 201.38 2265.13 198.93 C 2255.70 195.23 2249.26 185.89 2247.84 176.04 C 2246.08 168.46 2248.85 160.92 2250.71 153.64 C 2252.45 146.92 2255.03 139.87 2253.26 132.88 C 2251.74 125.46 2245.52 119.03 2237.99 117.73 C 2232.42 117.02 2226.42 117.39 2221.58 120.46 C 2211.89 126.43 2205.86 136.71 2202.15 147.20 C 2195.29 166.96 2194.35 188.91 2199.96 209.09 C 2204.03 224.15 2214.04 237.70 2227.90 245.10 C 2240.17 251.46 2254.57 252.15 2268.03 250.19 C 2283.61 247.83 2296.98 238.36 2307.80 227.34 C 2309.19 228.12 2310.62 228.85 2312.12 229.54 C 2306.29 243.56 2298.30 256.82 2288.06 268.06 C 2278.36 278.98 2265.96 287.41 2252.14 292.19 C 2230.67 299.09 2206.85 297.57 2186.10 288.93 C 2171.44 282.35 2158.34 271.96 2149.47 258.49 C 2128.03 226.91 2129.73 182.02 2152.60 151.65 C 2169.42 128.89 2196.72 114.44 2224.93 112.85 Z" />
<path fill="#e66f6f" d=" M 2393.75 115.81 C 2401.34 113.65 2409.26 112.98 2417.11 112.30 C 2433.82 112.58 2450.95 115.79 2465.43 124.53 C 2487.81 137.58 2502.19 162.38 2504.42 187.96 C 2465.94 188.27 2427.44 187.86 2388.96 188.16 C 2389.61 195.65 2389.81 203.23 2391.50 210.59 C 2393.42 219.72 2397.30 228.53 2403.17 235.81 C 2412.29 246.48 2426.38 251.47 2440.06 252.47 C 2446.60 252.48 2453.24 252.97 2459.72 251.66 C 2475.05 249.11 2489.98 240.84 2498.57 227.62 C 2499.78 225.84 2500.98 224.04 2502.19 222.23 C 2503.42 222.56 2504.67 222.88 2505.97 223.21 C 2498.83 245.57 2486.53 267.22 2467.06 280.99 C 2438.95 300.75 2399.80 301.19 2369.92 285.09 C 2362.48 281.20 2355.76 276.05 2349.59 270.40 C 2338.69 258.92 2330.20 244.89 2326.52 229.40 C 2321.64 210.06 2323.29 189.26 2330.72 170.78 C 2341.79 144.09 2365.71 123.01 2393.75 115.81 Z" />
<path fill="#e66f6f" d=" M 2495.20 112.28 C 2503.39 112.24 2511.60 112.10 2519.80 112.37 C 2519.94 113.54 2520.10 114.72 2520.30 115.89 C 2516.73 115.97 2513.19 116.10 2509.65 116.12 C 2509.45 124.11 2509.62 132.11 2509.57 140.11 C 2508.05 140.16 2506.56 140.24 2505.11 140.38 C 2504.74 132.30 2505.24 124.22 2504.93 116.14 C 2501.64 116.12 2498.36 115.92 2495.10 115.84 C 2495.10 114.65 2495.14 113.47 2495.20 112.28 Z" />
<path fill="#e66f6f" d=" M 2522.60 112.44 C 2524.55 112.35 2526.53 112.28 2528.53 112.23 C 2531.99 119.54 2534.58 127.24 2538.18 134.50 C 2541.53 127.20 2544.45 119.72 2547.66 112.36 C 2549.59 112.30 2551.54 112.24 2553.52 112.18 C 2553.59 121.49 2553.54 130.81 2553.55 140.13 C 2552.04 140.17 2550.55 140.25 2549.11 140.38 C 2548.77 133.48 2549.13 126.58 2548.75 119.69 C 2545.68 126.47 2543.22 133.52 2539.94 140.20 C 2539.14 140.28 2537.52 140.43 2536.72 140.51 C 2532.96 133.53 2530.46 125.98 2527.25 118.75 C 2526.84 125.98 2527.24 133.22 2526.88 140.44 C 2525.41 140.21 2523.97 140.05 2522.55 139.94 C 2522.42 130.77 2522.33 121.60 2522.60 112.44 Z" />
<path fill="#e66f6f" d=" M 1075.17 122.24 C 1095.72 119.84 1116.28 117.50 1136.73 114.30 C 1136.99 153.21 1136.72 192.13 1136.87 231.04 C 1137.26 236.37 1137.61 241.70 1137.74 247.05 C 1138.17 253.27 1141.09 259.18 1145.53 263.52 C 1150.30 267.49 1156.69 268.36 1162.54 269.78 C 1162.52 270.93 1162.51 272.09 1162.52 273.25 C 1149.46 275.75 1136.39 278.43 1123.80 282.77 C 1116.29 285.44 1108.57 287.49 1101.03 290.10 C 1092.57 292.95 1084.13 295.89 1075.48 298.13 C 1075.23 287.45 1075.72 276.77 1075.22 266.10 C 1070.36 269.57 1066.36 274.06 1061.68 277.75 C 1050.07 286.89 1036.78 294.52 1022.02 296.95 C 1007.17 299.92 990.34 297.68 978.77 287.25 C 970.53 279.16 968.04 267.18 967.70 256.04 C 967.70 230.03 967.71 204.02 967.71 178.01 C 967.59 166.84 968.50 155.47 965.55 144.56 C 964.17 139.42 961.78 133.86 956.77 131.34 C 951.79 129.09 946.24 128.72 940.93 127.73 C 941.26 126.37 941.54 124.99 941.73 123.61 C 952.60 124.01 963.40 122.87 974.15 121.38 C 992.51 119.48 1010.81 116.96 1029.10 114.41 C 1029.31 153.60 1029.13 192.80 1029.18 232.00 C 1029.01 240.23 1029.42 248.48 1030.40 256.66 C 1031.20 262.59 1035.22 267.89 1040.66 270.36 C 1046.33 272.87 1052.98 272.95 1058.82 270.95 C 1064.66 268.56 1069.99 264.82 1074.19 260.10 C 1075.64 258.83 1075.33 256.79 1075.46 255.07 C 1075.35 222.71 1075.51 190.34 1075.39 157.98 C 1074.41 149.54 1073.79 139.94 1067.54 133.50 C 1062.45 129.01 1055.18 129.01 1048.84 127.85 C 1048.91 126.49 1049.01 125.14 1049.12 123.78 C 1057.82 123.57 1066.53 123.56 1075.17 122.24 Z" />
<path fill="#e66f6f" d=" M 408.41 140.49 C 434.28 126.73 462.83 117.96 491.97 114.90 C 498.28 114.17 504.66 114.54 511.01 114.48 C 521.36 114.88 532.13 117.91 539.79 125.21 C 545.60 130.34 549.48 137.57 550.50 145.26 C 553.14 162.72 551.87 180.42 552.16 198.00 C 552.15 217.02 552.20 236.04 552.12 255.06 C 551.99 260.23 553.54 265.90 557.82 269.16 C 560.96 271.69 565.24 271.64 569.07 271.52 C 573.36 271.45 577.14 269.16 580.98 267.50 C 581.79 268.27 582.60 269.04 583.42 269.82 C 570.97 280.42 557.63 290.81 541.88 295.95 C 530.82 299.46 518.10 300.18 507.68 294.34 C 497.45 288.44 492.49 276.82 490.16 265.76 C 487.18 269.27 484.46 273.01 481.45 276.50 C 470.54 287.86 455.75 295.32 440.12 297.32 C 426.80 298.97 412.65 298.57 400.33 292.69 C 393.70 289.83 387.83 285.25 383.51 279.46 C 376.24 269.05 375.75 254.70 381.61 243.54 C 386.31 234.63 394.50 228.10 403.12 223.19 C 430.47 208.45 460.07 198.51 489.77 189.70 C 490.02 178.84 490.03 167.96 489.79 157.11 C 488.79 149.11 489.48 140.59 485.82 133.17 C 481.94 125.15 471.58 122.07 463.41 124.58 C 456.97 126.49 450.15 129.80 447.16 136.21 C 441.88 146.87 441.35 159.01 439.51 170.57 C 438.36 178.17 435.27 185.50 430.50 191.54 C 422.01 201.84 407.17 206.69 394.33 202.73 C 389.73 201.20 385.34 198.43 382.72 194.27 C 376.87 185.66 377.05 173.86 381.91 164.85 C 387.55 153.88 398.04 146.57 408.41 140.49 Z" />
<path fill="#fffefe" d=" M 2396.20 135.17 C 2399.27 127.25 2405.34 119.63 2414.01 117.75 C 2419.23 117.09 2425.13 117.09 2429.46 120.58 C 2435.69 125.24 2438.03 133.10 2439.57 140.38 C 2442.06 154.60 2442.58 169.11 2441.90 183.52 C 2424.29 183.49 2406.68 183.49 2389.07 183.51 C 2389.49 167.24 2390.25 150.52 2396.20 135.17 Z" />
<path fill="#e66f6f" d=" M 561.13 119.19 C 583.75 118.86 606.38 119.15 629.00 119.05 C 644.62 119.15 660.24 118.85 675.85 119.20 C 675.75 120.54 675.67 121.88 675.63 123.23 C 671.14 124.15 665.83 124.90 663.18 129.14 C 658.40 136.20 661.04 145.17 663.31 152.65 C 668.02 165.34 675.39 176.83 680.61 189.31 C 687.08 202.32 693.46 215.39 700.19 228.27 C 704.95 220.04 708.41 211.17 712.72 202.71 C 718.27 190.13 723.78 177.11 724.45 163.19 C 725.50 155.77 724.83 148.22 723.25 140.93 C 721.99 135.38 718.40 130.34 713.38 127.61 C 710.16 125.86 706.70 124.65 703.26 123.46 C 703.18 122.03 703.07 120.60 702.89 119.18 C 729.53 118.97 756.18 118.93 782.82 119.21 C 782.69 120.56 782.60 121.92 782.54 123.28 C 776.66 124.96 770.69 126.97 765.85 130.84 C 761.54 133.83 758.42 138.10 755.06 142.05 C 740.90 160.05 729.57 180.07 719.54 200.60 C 701.41 236.82 683.32 273.06 665.18 309.27 C 657.21 325.65 648.46 342.40 634.26 354.29 C 620.43 366.21 600.23 370.24 582.97 364.07 C 575.24 361.30 568.12 356.19 563.90 349.05 C 557.73 338.31 557.40 323.95 564.66 313.64 C 573.87 300.46 593.87 297.15 607.24 305.72 C 615.29 311.02 619.46 320.15 626.57 326.39 C 632.72 331.82 642.40 330.55 648.11 325.12 C 655.73 317.92 660.49 308.31 665.00 298.99 C 666.82 296.16 664.56 293.23 663.40 290.65 C 653.14 270.99 644.07 250.76 633.92 231.05 C 621.01 205.79 609.03 180.08 596.15 154.80 C 592.60 148.12 589.91 140.84 585.00 134.98 C 581.53 131.09 577.69 127.10 572.57 125.52 C 568.89 124.43 565.05 123.99 561.28 123.36 C 561.25 121.97 561.19 120.58 561.13 119.19 Z" />
<path fill="#fffefe" d=" M 457.13 213.11 C 465.30 203.10 477.64 197.93 489.85 194.74 C 490.04 212.18 489.84 229.61 489.95 247.05 C 489.90 254.29 488.75 262.20 483.74 267.79 C 476.77 275.88 462.19 276.09 455.69 267.31 C 450.11 260.13 449.73 250.61 449.23 241.91 C 449.53 231.93 450.77 221.24 457.13 213.11 Z" />
</svg>
