<?xml version="1.0" encoding="UTF-8" ?>
<!DOCTYPE svg PUBLIC "-//W3C//DTD SVG 1.1//EN" "http://www.w3.org/Graphics/SVG/1.1/DTD/svg11.dtd">
<svg width="1534pt" height="652pt" viewBox="0 0 1534 652" version="1.1" xmlns="http://www.w3.org/2000/svg">
<path fill="#fffefe" d=" M 0.00 0.00 L 1534.00 0.00 L 1534.00 652.00 L 0.00 652.00 L 0.00 0.00 Z" />
<path fill="#e76f6f" d=" M 405.59 21.60 C 416.51 18.83 426.81 13.92 437.90 11.79 C 438.31 93.85 437.89 175.93 438.11 257.99 C 438.74 264.17 439.19 270.89 442.95 276.09 C 448.00 282.53 456.92 282.73 464.34 283.90 C 464.38 285.38 464.42 286.87 464.45 288.36 C 434.31 288.60 404.15 288.39 374.00 288.46 C 364.69 288.38 355.38 288.65 346.08 288.31 C 346.11 286.86 346.15 285.40 346.19 283.95 C 352.48 282.69 359.42 282.72 364.85 278.86 C 369.55 275.43 371.04 269.41 371.77 263.95 C 372.83 257.68 372.46 251.32 372.50 245.00 C 372.50 192.34 372.49 139.67 372.50 87.00 C 372.60 77.56 372.59 67.77 369.16 58.83 C 366.87 53.58 363.46 48.46 358.31 45.67 C 353.18 42.65 347.09 42.45 341.39 41.37 C 341.31 39.99 341.23 38.60 341.13 37.22 C 362.78 32.73 384.26 27.44 405.59 21.60 Z" />
<path fill="#e76f6f" d=" M 1384.63 22.68 C 1396.92 19.41 1408.72 14.35 1421.18 11.73 C 1421.53 94.49 1421.20 177.26 1421.34 260.02 C 1421.72 266.20 1422.65 273.12 1427.44 277.56 C 1432.50 283.13 1440.72 282.52 1447.52 283.90 C 1447.54 285.39 1447.58 286.88 1447.63 288.37 C 1407.94 288.51 1368.24 288.54 1328.55 288.36 C 1328.56 286.87 1328.60 285.38 1328.66 283.90 C 1335.94 282.64 1344.50 282.78 1349.97 277.02 C 1355.82 269.31 1354.79 259.13 1355.68 250.04 C 1355.72 194.35 1355.73 138.65 1355.68 82.95 C 1354.95 74.88 1355.35 66.48 1352.14 58.86 C 1350.08 53.70 1346.27 49.44 1341.95 46.04 C 1336.93 42.38 1330.42 42.88 1324.73 41.12 C 1324.06 39.90 1323.84 38.52 1323.50 37.21 C 1344.09 33.28 1364.36 27.94 1384.63 22.68 Z" />
<path fill="#e76f6f" d=" M 1000.27 20.23 C 1012.75 13.01 1027.91 12.57 1041.86 14.49 C 1056.63 16.47 1071.72 21.76 1082.13 32.87 C 1089.80 40.01 1094.42 50.48 1093.62 61.03 C 1094.02 68.83 1089.99 76.19 1084.06 81.05 C 1070.41 92.86 1046.88 88.58 1037.92 73.00 C 1032.52 63.09 1033.26 51.36 1032.47 40.45 C 1031.77 34.79 1032.19 28.37 1028.28 23.74 C 1025.84 20.42 1021.70 18.18 1017.54 18.68 C 1010.45 19.38 1005.04 25.36 1002.64 31.70 C 997.73 43.84 998.44 57.18 998.43 70.00 C 998.46 81.53 998.39 93.06 998.45 104.59 C 1011.91 104.82 1025.38 104.42 1038.84 104.78 C 1036.03 110.26 1033.34 115.83 1030.02 121.02 C 1029.27 122.51 1027.40 122.15 1026.08 122.30 C 1016.87 122.37 1007.66 122.15 998.45 122.35 C 998.39 162.57 998.47 202.79 998.41 243.01 C 998.23 248.70 999.21 254.34 999.29 260.03 C 999.69 266.41 1001.22 273.37 1005.98 277.98 C 1013.68 283.55 1023.74 282.98 1032.78 283.87 C 1032.79 285.34 1032.80 286.82 1032.84 288.30 C 993.56 288.69 954.28 288.33 915.01 288.48 C 911.35 288.50 907.69 288.46 904.04 288.33 C 904.07 286.86 904.11 285.40 904.17 283.94 C 911.96 282.61 920.86 282.75 927.00 276.99 C 931.48 272.20 932.50 265.33 932.83 259.03 C 932.90 254.02 933.76 249.05 933.66 244.03 C 933.60 203.47 933.69 162.90 933.62 122.34 C 926.32 122.13 919.02 122.49 911.73 122.11 C 924.95 104.90 938.57 88.00 951.96 70.92 C 959.05 61.73 966.53 52.84 974.05 44.01 C 978.14 40.08 981.36 35.30 985.82 31.75 C 990.49 27.74 994.79 23.17 1000.27 20.23 Z" />
<path fill="#e76f6f" d=" M 88.77 43.21 C 134.53 43.12 180.29 43.18 226.05 43.18 C 239.04 44.13 252.12 45.07 264.82 48.15 C 282.69 52.25 300.47 59.27 313.97 72.04 C 323.01 81.06 329.91 92.72 331.32 105.60 C 333.69 122.37 327.74 139.85 316.01 152.01 C 303.06 165.81 285.08 173.78 266.90 178.03 C 254.87 181.32 242.34 181.78 230.00 182.90 C 218.64 183.24 207.27 182.70 195.92 183.08 C 195.72 204.06 195.85 225.05 195.84 246.04 C 196.53 256.19 196.90 267.76 204.67 275.35 C 212.74 282.96 224.65 282.57 234.96 283.86 C 235.00 285.35 235.03 286.84 235.07 288.35 C 189.71 288.63 144.35 288.36 99.00 288.48 C 95.57 288.50 92.14 288.46 88.71 288.34 C 88.72 286.86 88.74 285.37 88.77 283.90 C 98.28 282.80 109.67 282.31 115.91 273.89 C 122.03 266.43 121.64 256.37 122.59 247.32 C 123.37 241.24 123.11 235.11 123.13 229.00 C 123.12 181.32 123.14 133.64 123.12 85.96 C 122.56 77.93 122.51 69.51 118.89 62.12 C 116.54 57.16 112.71 52.53 107.44 50.59 C 101.44 48.35 94.93 48.40 88.72 47.02 C 88.73 45.75 88.75 44.48 88.77 43.21 Z" />
<path fill="#fffefe" d=" M 195.91 48.06 C 210.11 47.66 226.08 47.93 237.60 57.40 C 248.27 65.92 251.35 80.10 253.06 92.95 C 253.56 102.73 255.06 112.54 253.61 122.31 C 253.14 137.91 251.06 155.09 240.08 167.10 C 228.56 178.49 211.04 178.63 195.90 178.11 C 195.78 134.76 195.76 91.41 195.91 48.06 Z" />
<path fill="#e76f6f" d=" M 577.93 103.80 C 590.78 101.22 603.87 99.45 617.00 99.80 C 630.25 99.54 644.47 103.24 653.56 113.45 C 661.28 121.11 663.33 132.38 663.64 142.83 C 664.67 150.85 664.25 158.94 664.31 167.00 C 664.30 194.35 664.34 221.69 664.29 249.04 C 664.29 254.37 666.25 260.14 670.81 263.26 C 674.10 265.43 678.23 265.48 682.04 265.35 C 686.67 265.28 690.67 262.68 694.87 261.04 C 695.63 261.92 696.41 262.77 697.22 263.62 C 686.96 272.48 676.00 280.63 663.97 286.94 C 652.10 292.39 638.48 296.04 625.53 292.57 C 617.07 290.71 609.90 284.73 605.65 277.29 C 602.23 271.86 600.52 265.63 598.99 259.46 C 595.89 262.90 593.16 266.64 590.14 270.14 C 578.28 282.85 561.73 290.86 544.48 292.74 C 530.76 294.17 516.25 293.60 503.68 287.35 C 494.49 283.18 486.13 275.96 482.72 266.23 C 479.36 258.08 479.70 248.74 482.52 240.49 C 486.61 229.00 496.44 220.64 506.73 214.70 C 524.57 205.02 543.40 197.25 562.56 190.61 C 574.52 186.77 586.29 182.32 598.48 179.24 C 598.93 168.16 598.67 157.07 598.64 145.99 C 597.67 136.91 598.40 127.21 594.06 118.88 C 590.45 112.19 582.28 108.99 574.97 109.69 C 569.64 110.27 564.65 112.48 560.13 115.28 C 555.32 118.38 552.78 123.81 551.02 129.06 C 548.09 138.37 547.13 148.13 545.78 157.75 C 544.56 166.63 541.10 175.35 535.14 182.12 C 525.94 192.37 510.62 197.03 497.42 192.66 C 492.93 190.94 488.48 188.33 485.88 184.16 C 479.58 175.04 479.79 162.47 484.90 152.87 C 490.68 141.71 501.26 134.19 511.76 127.85 C 532.44 116.55 554.91 108.72 577.93 103.80 Z" />
<path fill="#e76f6f" d=" M 1121.46 105.73 C 1136.67 104.14 1151.79 101.79 1166.96 99.79 C 1167.24 138.86 1166.99 177.93 1167.08 217.00 C 1167.19 225.04 1166.67 233.12 1167.66 241.13 C 1167.90 247.19 1168.25 253.77 1172.26 258.69 C 1178.03 265.97 1188.54 267.53 1197.09 265.16 C 1203.74 262.86 1209.63 258.58 1214.46 253.52 C 1216.01 252.14 1215.77 249.95 1215.86 248.09 C 1215.77 217.39 1215.83 186.70 1215.82 156.00 C 1216.15 146.69 1215.45 137.26 1212.66 128.34 C 1211.01 123.84 1208.24 119.22 1203.63 117.32 C 1198.62 115.24 1193.16 114.79 1187.87 113.92 C 1187.86 112.57 1187.86 111.23 1187.89 109.89 C 1192.89 109.12 1197.95 109.64 1202.99 109.36 C 1228.91 106.75 1254.73 103.26 1280.56 99.93 C 1280.62 140.62 1280.58 181.31 1280.57 222.00 C 1280.61 227.02 1281.58 231.99 1281.43 237.02 C 1281.26 244.75 1284.69 252.41 1290.52 257.48 C 1295.47 261.22 1301.85 262.02 1307.71 263.54 C 1307.64 264.76 1307.60 265.99 1307.57 267.21 C 1296.54 269.27 1285.52 271.47 1274.76 274.69 C 1267.82 276.67 1261.09 279.29 1254.15 281.27 C 1241.35 285.11 1228.89 290.06 1215.92 293.32 C 1215.58 282.09 1216.07 270.84 1215.68 259.61 C 1209.50 264.05 1204.50 269.91 1198.27 274.30 C 1189.82 280.27 1180.99 286.01 1171.05 289.15 C 1156.54 294.04 1140.04 295.45 1125.68 289.31 C 1120.02 286.74 1114.38 283.39 1110.77 278.20 C 1104.29 269.64 1102.53 258.51 1102.33 248.04 C 1102.38 214.69 1102.35 181.35 1102.35 148.00 C 1101.63 138.51 1100.95 128.03 1094.54 120.41 C 1089.18 115.04 1080.95 115.37 1074.04 113.70 C 1074.37 112.28 1074.71 110.86 1075.06 109.45 C 1090.64 110.22 1106.01 107.25 1121.46 105.73 Z" />
<path fill="#e76f6f" d=" M 673.84 104.74 C 714.08 104.57 754.32 104.59 794.56 104.73 C 794.51 106.17 794.47 107.61 794.44 109.05 C 789.68 109.97 784.11 110.88 781.31 115.35 C 776.67 122.14 778.80 130.82 780.83 138.14 C 785.39 151.74 793.32 163.85 798.96 176.99 C 803.45 186.69 808.47 196.14 813.18 205.74 C 815.60 210.32 817.42 215.25 820.54 219.43 C 825.50 210.80 829.09 201.48 833.64 192.63 C 839.30 179.69 845.03 166.33 845.88 152.05 C 847.13 142.59 846.60 132.67 843.30 123.67 C 840.01 115.36 831.26 111.79 823.41 109.14 C 823.41 107.67 823.41 106.20 823.42 104.73 C 851.38 104.60 879.35 104.54 907.31 104.77 C 907.29 106.18 907.27 107.61 907.27 109.03 C 901.16 110.85 894.96 112.92 889.85 116.88 C 885.11 120.07 881.73 124.76 878.07 129.06 C 863.35 147.82 851.46 168.62 841.03 190.00 C 821.13 229.78 801.23 269.54 781.35 309.32 C 774.06 324.20 765.72 339.07 753.33 350.33 C 743.17 360.19 729.11 365.72 715.00 365.98 C 704.56 365.69 693.75 363.25 685.39 356.68 C 671.06 346.28 667.24 324.04 677.59 309.60 C 687.24 295.92 707.84 292.44 721.92 301.08 C 729.22 305.72 733.72 313.31 739.23 319.75 C 742.45 323.52 746.92 326.72 752.05 326.83 C 759.08 327.33 765.38 322.86 769.55 317.57 C 775.24 310.21 779.75 301.97 783.57 293.51 C 784.90 290.94 782.80 288.39 781.86 286.08 C 771.49 266.24 762.33 245.83 752.09 225.93 C 743.86 209.16 735.07 192.66 727.35 175.64 C 719.55 160.10 711.83 144.51 703.98 128.99 C 699.30 120.70 692.31 112.29 682.40 110.63 C 679.58 110.07 676.74 109.61 673.90 109.16 C 673.87 107.69 673.85 106.21 673.84 104.74 Z" />
<path fill="#fffefe" d=" M 564.89 202.92 C 573.44 192.88 586.01 187.96 598.33 184.34 C 598.80 188.21 598.79 192.11 598.71 196.00 C 598.66 211.34 598.73 226.68 598.70 242.01 C 598.38 250.12 596.19 259.22 589.17 264.15 C 584.70 267.63 578.70 268.18 573.26 267.48 C 566.12 266.17 560.74 260.03 558.66 253.31 C 555.32 242.85 555.22 231.58 557.01 220.82 C 558.32 214.41 560.53 207.93 564.89 202.92 Z" />
<path fill="#e76f6f" d=" M 898.43 356.72 C 919.03 351.35 941.76 366.44 945.91 387.09 C 947.27 394.88 946.74 403.12 943.41 410.37 C 939.11 421.11 929.35 429.14 918.41 432.47 C 912.56 434.37 906.28 434.08 900.24 433.62 C 887.84 431.38 877.02 422.74 871.37 411.57 C 867.84 404.39 867.59 396.17 868.40 388.35 C 870.93 373.09 883.30 360.04 898.43 356.72 Z" />
<path fill="#e76f6f" d=" M 599.34 368.27 C 608.63 361.31 620.62 359.17 632.00 359.50 C 648.02 359.16 664.30 363.38 677.63 372.41 C 686.08 378.77 693.61 387.41 695.64 398.09 C 697.77 407.87 695.39 418.95 687.88 425.90 C 675.49 437.23 653.91 435.66 643.25 422.69 C 635.58 413.84 635.84 401.36 635.28 390.34 C 634.49 384.34 634.92 378.05 632.64 372.33 C 630.25 367.50 624.93 363.42 619.31 364.43 C 613.64 365.25 609.01 369.41 606.51 374.41 C 602.73 382.00 601.58 390.58 601.17 398.95 C 601.19 415.89 601.12 432.83 601.20 449.77 C 614.62 449.98 628.04 449.56 641.46 449.97 C 638.92 456.37 635.09 462.14 631.78 468.16 C 621.59 468.42 611.41 468.13 601.22 468.28 C 601.08 510.52 601.24 552.77 601.14 595.01 C 601.05 600.53 601.73 606.02 602.53 611.47 C 603.38 617.09 606.15 622.89 611.43 625.58 C 618.56 629.34 626.88 628.40 634.59 629.79 C 634.60 631.31 634.62 632.83 634.64 634.36 C 592.03 634.47 549.42 634.54 506.81 634.32 C 506.79 632.81 506.78 631.31 506.78 629.81 C 513.88 628.09 522.07 628.88 528.03 623.96 C 533.92 619.20 535.21 611.13 535.56 604.00 C 535.56 558.78 535.58 513.55 535.55 468.32 C 528.55 468.09 521.54 468.47 514.54 468.07 C 517.48 462.99 521.41 458.61 525.02 454.02 C 537.50 438.18 550.02 422.37 562.54 406.55 C 573.81 392.92 584.97 378.81 599.34 368.27 Z" />
<path fill="#e76f6f" d=" M 763.76 366.76 C 775.00 359.39 789.02 359.05 802.00 359.66 C 817.40 360.95 833.06 365.83 844.81 376.22 C 852.76 383.59 859.07 393.81 858.61 405.00 C 859.00 412.35 856.38 419.89 851.06 425.06 C 844.57 432.14 834.21 434.38 824.99 433.13 C 813.23 431.93 802.68 422.86 799.89 411.35 C 798.15 404.08 797.76 396.58 797.60 389.13 C 796.89 383.19 797.35 376.87 794.61 371.38 C 792.08 366.05 785.53 362.90 779.85 364.93 C 773.39 366.43 769.56 372.47 767.23 378.22 C 764.64 385.17 763.83 392.64 763.44 399.99 C 763.41 416.57 763.42 433.16 763.43 449.74 C 776.96 450.08 790.50 449.42 804.02 450.07 C 801.09 456.32 797.77 462.41 794.05 468.22 C 783.84 468.37 773.64 468.11 763.44 468.32 C 763.40 500.22 763.44 532.11 763.43 564.00 C 763.67 580.00 762.54 596.13 765.04 612.00 C 765.95 618.17 769.84 623.84 775.55 626.47 C 782.62 629.30 790.38 628.46 797.74 629.93 C 797.76 631.37 797.80 632.82 797.84 634.27 C 780.23 634.67 762.61 634.32 745.00 634.44 C 719.67 634.35 694.34 634.62 669.01 634.31 C 669.01 632.81 669.01 631.31 669.02 629.83 C 675.22 628.36 681.88 628.60 687.73 625.81 C 692.24 623.24 695.47 618.66 696.63 613.63 C 698.21 608.29 697.59 602.68 698.16 597.22 C 698.93 590.84 698.55 584.40 698.62 578.00 C 698.61 541.44 698.64 504.88 698.61 468.33 C 691.30 468.09 683.99 468.46 676.69 468.09 C 684.86 456.58 694.14 445.88 702.68 434.65 C 715.44 418.78 727.61 402.41 741.28 387.31 C 747.90 379.58 755.40 372.56 763.76 366.76 Z" />
<path fill="#e76f6f" d=" M 350.47 384.62 C 371.65 383.20 393.32 384.97 413.24 392.78 C 429.84 399.57 445.86 408.60 458.67 421.31 C 479.76 441.07 493.84 468.37 497.12 497.13 C 501.57 530.79 490.55 565.83 468.57 591.58 C 457.42 605.33 442.77 615.88 427.25 624.19 C 399.08 638.87 365.77 642.70 334.78 636.27 C 314.21 631.92 294.76 622.70 278.18 609.82 C 249.11 586.65 230.16 550.45 230.20 513.01 C 229.71 485.39 239.25 457.93 256.07 436.09 C 261.17 428.96 267.75 423.10 273.96 416.96 C 295.28 398.57 322.45 387.21 350.47 384.62 Z" />
<path fill="#fffefe" d=" M 358.41 389.47 C 370.97 387.85 384.36 391.56 393.64 400.36 C 404.09 410.09 407.69 424.49 411.07 437.83 C 414.16 452.58 416.16 467.60 416.69 482.67 C 417.84 492.40 417.08 502.22 417.29 512.00 C 417.09 521.16 417.79 530.37 416.82 539.50 C 415.66 561.20 413.05 583.14 405.75 603.72 C 401.07 617.65 389.49 629.61 374.90 632.85 C 362.86 636.31 349.62 633.45 339.29 626.66 C 332.74 621.49 326.78 615.10 323.84 607.15 C 314.39 583.30 312.13 557.40 310.95 532.01 C 311.26 514.35 310.24 496.64 311.72 479.03 C 312.49 464.10 314.70 449.27 317.97 434.69 C 321.05 423.07 324.43 410.86 332.96 401.92 C 339.67 394.97 348.81 390.54 358.41 389.47 Z" />
<path fill="#e76f6f" d=" M 919.91 452.97 C 927.99 450.50 935.82 447.29 943.90 444.82 C 944.28 490.88 943.95 536.94 944.06 583.00 C 944.21 593.42 943.30 604.01 945.78 614.24 C 947.24 620.46 952.07 626.12 958.44 627.58 C 962.66 628.63 967.04 628.87 971.30 629.82 C 971.27 631.31 971.25 632.81 971.24 634.32 C 931.29 634.55 891.35 634.47 851.40 634.36 C 851.39 632.81 851.38 631.27 851.39 629.74 C 858.48 628.36 866.65 628.56 872.22 623.23 C 877.14 617.75 878.22 610.08 878.50 603.00 C 878.52 573.32 878.48 543.64 878.52 513.96 C 878.15 503.56 876.43 492.01 868.60 484.43 C 862.81 479.04 854.71 478.31 847.35 476.76 C 847.11 475.58 846.88 474.41 846.65 473.24 C 871.39 467.68 895.62 460.17 919.91 452.97 Z" />
<path fill="#e76f6f" d=" M 1057.53 450.49 C 1068.28 446.81 1079.70 445.76 1090.98 445.10 C 1101.83 445.86 1112.88 446.76 1123.12 450.75 C 1140.37 456.40 1156.30 468.20 1163.91 485.04 C 1169.39 496.87 1170.92 511.54 1164.26 523.23 C 1159.19 532.57 1148.84 539.35 1138.02 538.62 C 1128.44 539.32 1118.72 534.64 1113.13 526.87 C 1108.53 520.98 1106.63 513.41 1106.40 506.05 C 1107.22 495.83 1111.42 486.28 1113.12 476.22 C 1114.55 468.58 1111.82 460.20 1105.74 455.24 C 1100.50 450.37 1092.73 449.83 1086.01 451.10 C 1078.50 452.66 1072.82 458.37 1068.12 464.07 C 1061.00 473.89 1057.02 485.63 1054.67 497.43 C 1053.12 507.62 1051.99 518.03 1053.28 528.32 C 1054.27 543.40 1058.93 558.65 1068.49 570.55 C 1074.70 577.88 1082.45 584.19 1091.57 587.50 C 1102.61 591.89 1114.82 591.98 1126.48 590.73 C 1143.55 588.62 1158.40 578.56 1170.10 566.42 C 1171.72 567.25 1173.36 568.08 1175.00 568.92 C 1167.91 584.29 1159.34 599.25 1147.43 611.42 C 1133.95 625.77 1115.61 635.77 1095.99 638.22 C 1072.74 641.44 1048.00 636.83 1028.32 623.76 C 1008.55 611.09 994.50 590.04 989.80 567.09 C 987.85 556.89 986.45 546.36 987.99 536.00 C 989.89 512.30 1001.04 489.60 1018.41 473.40 C 1029.58 463.07 1043.00 455.08 1057.53 450.49 Z" />
<path fill="#e76f6f" d=" M 1233.08 461.00 C 1249.29 450.31 1268.74 445.59 1287.98 445.09 C 1304.16 445.90 1320.68 448.87 1334.83 457.15 C 1353.44 467.36 1367.26 485.39 1373.49 505.56 C 1375.58 511.81 1377.22 518.28 1377.44 524.90 C 1336.88 525.12 1296.32 524.74 1255.77 525.09 C 1256.60 533.47 1256.64 541.99 1258.82 550.18 C 1260.89 559.26 1264.90 567.97 1270.75 575.24 C 1278.89 584.70 1290.85 590.19 1303.07 591.97 C 1321.08 594.64 1340.60 592.46 1355.93 581.97 C 1364.09 576.81 1370.10 569.08 1375.14 560.99 C 1376.47 561.32 1377.81 561.65 1379.17 561.97 C 1373.01 580.67 1363.98 598.87 1349.86 612.86 C 1336.19 627.03 1317.41 635.76 1297.99 638.33 C 1276.78 641.09 1254.60 637.45 1235.75 627.22 C 1222.94 620.38 1211.59 610.65 1203.56 598.50 C 1189.31 578.17 1184.18 551.99 1188.52 527.65 C 1191.27 510.51 1198.95 494.31 1210.06 481.00 C 1216.97 473.53 1224.24 466.20 1233.08 461.00 Z" />
<path fill="#e76f6f" d=" M 1367.75 445.09 C 1376.40 445.08 1385.07 444.84 1393.72 445.24 C 1393.88 446.46 1394.05 447.69 1394.23 448.92 C 1390.47 449.04 1386.73 449.07 1382.99 449.13 C 1382.67 457.64 1383.09 466.16 1382.76 474.67 C 1381.24 474.65 1379.74 474.65 1378.26 474.67 C 1377.94 466.16 1378.34 457.64 1378.05 449.13 C 1374.60 449.07 1371.16 449.03 1367.73 448.94 C 1367.72 447.65 1367.72 446.37 1367.75 445.09 Z" />
<path fill="#e76f6f" d=" M 1396.84 445.18 C 1398.82 445.11 1400.82 445.08 1402.84 445.05 C 1406.76 452.57 1408.87 460.93 1413.27 468.21 C 1416.78 460.59 1419.62 452.68 1423.19 445.08 C 1425.18 445.04 1427.18 445.01 1429.20 444.98 C 1429.43 454.83 1429.32 464.69 1429.26 474.55 C 1427.67 474.55 1426.10 474.55 1424.55 474.56 C 1424.32 467.29 1424.63 460.01 1424.38 452.75 C 1420.78 459.89 1418.57 467.66 1414.71 474.67 C 1413.59 474.67 1412.48 474.68 1411.39 474.70 C 1407.47 467.33 1404.99 459.32 1401.40 451.79 C 1401.22 459.39 1401.47 467.00 1401.28 474.60 C 1399.72 474.52 1398.18 474.44 1396.66 474.37 C 1396.48 464.65 1396.16 454.89 1396.84 445.18 Z" />
<path fill="#fffefe" d=" M 1267.09 462.12 C 1270.74 456.60 1276.20 451.81 1282.94 450.77 C 1288.37 450.14 1294.45 450.45 1298.85 454.10 C 1304.73 458.69 1307.24 466.14 1308.80 473.16 C 1311.97 488.58 1311.97 504.38 1311.72 520.04 C 1293.08 520.32 1274.44 520.19 1255.80 520.11 C 1256.22 508.34 1256.74 496.49 1258.95 484.89 C 1260.66 477.01 1262.66 468.97 1267.09 462.12 Z" />
</svg>
